<svg xmlns="http://www.w3.org/2000/svg" width="80" height="81" viewBox="0 0 80 81" fill="none">
<g clip-path="url(#clip0_1066_15866)">
<path d="M79.2719 27.9331C79.2683 27.9283 79.2662 27.9231 79.262 27.9181L70.5728 17.0998C70.4752 16.9785 70.3649 16.8739 70.2475 16.7804C69.8735 16.3368 69.3203 16.0488 68.6949 16.0488H11.3051C10.6792 16.0488 10.127 16.3364 9.75285 16.7804C9.63546 16.8739 9.52499 16.9774 9.42647 17.0998L0.738299 27.9181C0.734317 27.9231 0.732412 27.9283 0.72843 27.9331C0.286558 28.3073 0 28.8588 0 29.4826V62.9121C0 64.0376 0.912485 64.9502 2.03794 64.9502H77.9622C79.0877 64.9502 80.0002 64.0376 80.0002 62.9121V29.4826C80.0003 28.8588 79.7136 28.3073 79.2719 27.9331ZM70.7333 23.8077L73.6549 27.4447H70.7333V23.8077ZM66.6573 20.1249V27.4445H51.397C50.9617 27.4445 50.539 27.5839 50.1886 27.8415L40.0011 35.3386L29.8116 27.8405C29.4613 27.5839 29.0383 27.4445 28.6034 27.4445H13.3429V20.1249H66.6573ZM9.26735 27.4447H6.34584L9.26735 23.8077V27.4447ZM75.9246 60.8742H4.07588V31.5206H27.9349L38.7931 39.5109C39.5116 40.0384 40.4908 40.0394 41.2092 39.5101L52.0651 31.5204H75.9246V60.8742Z" fill="white" fill-opacity="0.3"/>
</g>
<defs>
<clipPath id="clip0_1066_15866">
<rect width="80" height="80" fill="white" transform="translate(0 0.5)"/>
</clipPath>
</defs>
</svg>