<svg width="57" height="57" viewBox="0 0 57 57" fill="none" xmlns="http://www.w3.org/2000/svg">
<path d="M16.5469 48.8359C15.375 48.8359 14.4922 48.5391 13.8984 47.9453C13.3047 47.3516 13.0156 46.4688 13.0312 45.2969V12.8594C13.0312 11.7031 13.3281 10.8281 13.9219 10.2344C14.5156 9.64063 15.3906 9.34375 16.5469 9.34375H22.1719C23.3281 9.35938 24.2031 9.65625 24.7969 10.2344C25.3906 10.8125 25.6875 11.6875 25.6875 12.8594V45.2969C25.6875 46.4688 25.3906 47.3516 24.7969 47.9453C24.2031 48.5391 23.3281 48.8359 22.1719 48.8359H16.5469ZM34.8281 48.8359C33.6406 48.8359 32.75 48.5391 32.1562 47.9453C31.5781 47.3516 31.2891 46.4688 31.2891 45.2969V12.8594C31.2891 11.7031 31.5859 10.8281 32.1797 10.2344C32.7734 9.64063 33.6562 9.34375 34.8281 9.34375H40.4297C41.6016 9.34375 42.4766 9.64063 43.0547 10.2344C43.6484 10.8125 43.9453 11.6875 43.9453 12.8594V45.2969C43.9453 46.4688 43.6484 47.3516 43.0547 47.9453C42.4766 48.5391 41.6016 48.8359 40.4297 48.8359H34.8281Z" fill="white"/>
</svg>
