<svg xmlns="http://www.w3.org/2000/svg" width="25" height="25" viewBox="0 0 25 25" fill="none">
<g clip-path="url(#clip0_1163_941068)">
<path d="M11.9607 0.574189C11.6796 0.703501 11.5 0.980851 11.5 1.28572V2.54938C6.44668 3.0511 2.5 7.31465 2.5 12.5C2.5 18.0228 6.97715 22.5 12.5 22.5C18.0228 22.5 22.5 18.0228 22.5 12.5C22.5 9.85353 21.471 7.44576 19.7926 5.65764C19.5092 5.35562 19.0345 5.34059 18.7325 5.62406C18.4305 5.90754 18.4155 6.38217 18.6989 6.68419C20.1266 8.20528 21 10.2498 21 12.5C21 17.1944 17.1944 21 12.5 21C7.80558 21 4 17.1944 4 12.5C4 8.14389 7.27683 4.55313 11.5 4.0582V5.21428C11.5 5.51915 11.6796 5.7965 11.9607 5.92581C12.2418 6.05512 12.5737 6.01305 12.8121 5.81788L15.2121 3.8536C15.3945 3.70432 15.5 3.48318 15.5 3.25C15.5 3.01682 15.3945 2.79568 15.2121 2.6464L12.8121 0.682121C12.5737 0.486948 12.2418 0.444877 11.9607 0.574189Z" fill="white"/>
<path d="M9.25586 15.5356C9.25586 16.0244 9.51904 16.3145 9.97021 16.3145C10.4268 16.3145 10.6899 16.0298 10.6899 15.5356V9.77246C10.6899 9.22998 10.3408 8.87012 9.81982 8.87012C9.51904 8.87012 9.21289 8.97754 8.82617 9.24072L7.86475 9.91211C7.59082 10.0947 7.45117 10.2935 7.45117 10.519C7.45117 10.8145 7.67139 11.0347 7.9668 11.0347C8.12256 11.0347 8.25684 10.9863 8.48779 10.8359L9.22363 10.3149H9.25586V15.5356Z" fill="white"/>
<path d="M11.9575 12.7642C11.9575 14.9771 12.9941 16.4058 14.7344 16.4058C16.4746 16.4058 17.5381 14.9609 17.5381 12.7642V12.4204C17.5381 10.2021 16.5068 8.77881 14.7559 8.77881C13.0103 8.77881 11.9575 10.2183 11.9575 12.4204V12.7642ZM13.4077 12.4258C13.4077 10.8789 13.9126 9.96045 14.7451 9.96045C15.5776 9.96045 16.0825 10.8843 16.0825 12.4258V12.7534C16.0825 14.3003 15.5776 15.2241 14.7451 15.2241C13.9126 15.2241 13.4077 14.3003 13.4077 12.7534V12.4258Z" fill="white"/>
</g>
<defs>
<clipPath id="clip0_1163_941068">
<rect width="24" height="24" fill="white" transform="translate(0.5 0.5)"/>
</clipPath>
</defs>
</svg>