<svg xmlns="http://www.w3.org/2000/svg" width="25" height="25" viewBox="0 0 25 25" fill="none">
<g clip-path="url(#clip0_1163_941063)">
<path d="M13.5 1.28572C13.5 0.980851 13.3204 0.703501 13.0393 0.574189C12.7582 0.444877 12.4263 0.486948 12.1879 0.682121L9.78785 2.6464C9.60546 2.79568 9.5 3.01682 9.5 3.25C9.5 3.48318 9.60546 3.70432 9.78785 3.8536L12.1879 5.81788C12.4263 6.01305 12.7582 6.05512 13.0393 5.92581C13.3204 5.7965 13.5 5.51915 13.5 5.21428V4.0582C17.7232 4.55313 21 8.14389 21 12.5C21 17.1944 17.1944 21 12.5 21C7.80558 21 4 17.1944 4 12.5C4 10.2498 4.87337 8.20528 6.30106 6.68419C6.58453 6.38217 6.5695 5.90754 6.26748 5.62406C5.96546 5.34059 5.49083 5.35562 5.20735 5.65764C3.52903 7.44576 2.5 9.85353 2.5 12.5C2.5 18.0228 6.97715 22.5 12.5 22.5C18.0228 22.5 22.5 18.0228 22.5 12.5C22.5 7.31465 18.5533 3.0511 13.5 2.54938V1.28572Z" fill="white"/>
<path fill-rule="evenodd" clip-rule="evenodd" d="M14.7363 16.4062C12.9961 16.4062 11.9595 14.9775 11.9595 12.7646V12.4209C11.9595 10.2188 13.0122 8.7793 14.7578 8.7793C16.5088 8.7793 17.54 10.2026 17.54 12.4209V12.7646C17.54 14.9614 16.4766 16.4062 14.7363 16.4062ZM14.7471 9.96094C13.9146 9.96094 13.4097 10.8794 13.4097 12.4263V12.7539C13.4097 14.3008 13.9146 15.2246 14.7471 15.2246C15.5796 15.2246 16.0845 14.3008 16.0845 12.7539V12.4263C16.0845 10.8848 15.5796 9.96094 14.7471 9.96094Z" fill="white"/>
<path d="M9.97217 16.3149C9.521 16.3149 9.25781 16.0249 9.25781 15.5361V10.3154H9.22559L8.48975 10.8364C8.25879 10.9868 8.12451 11.0352 7.96875 11.0352C7.67334 11.0352 7.45312 10.8149 7.45312 10.5195C7.45312 10.2939 7.59277 10.0952 7.8667 9.9126L8.82812 9.24121C9.21484 8.97803 9.521 8.87061 9.82178 8.87061C10.3428 8.87061 10.6919 9.23047 10.6919 9.77295V15.5361C10.6919 16.0303 10.4287 16.3149 9.97217 16.3149Z" fill="white"/>
</g>
<defs>
<clipPath id="clip0_1163_941063">
<rect width="24" height="24" fill="white" transform="translate(0.5 0.5)"/>
</clipPath>
</defs>
</svg>