<svg width="58" height="57" viewBox="0 0 58 57" fill="none" xmlns="http://www.w3.org/2000/svg">
<path d="M18.5703 45.8984C17.724 45.8984 17.0143 45.5924 16.4414 44.9805C15.8815 44.3815 15.6016 43.5547 15.6016 42.5V14.3359C15.6016 13.2943 15.8815 12.474 16.4414 11.875C17.0143 11.263 17.724 10.957 18.5703 10.957C19 10.957 19.4167 11.0286 19.8203 11.1719C20.224 11.3151 20.6667 11.5234 21.1484 11.7969L44.3516 25.2539C45.224 25.7487 45.862 26.237 46.2656 26.7188C46.6693 27.1875 46.8711 27.7539 46.8711 28.418C46.8711 29.0951 46.6693 29.668 46.2656 30.1367C45.862 30.6055 45.224 31.0938 44.3516 31.6016L21.1484 45.0391C20.6667 45.3255 20.224 45.5404 19.8203 45.6836C19.4167 45.8268 19 45.8984 18.5703 45.8984Z" fill="white"/>
</svg>
