<svg xmlns="http://www.w3.org/2000/svg" width="13" height="14" viewBox="0 0 13 14" fill="none">
<path d="M1.48956 6.54553V3.07259C1.48956 2.47428 1.97459 1.98926 2.5729 1.98926H6.04583C6.33315 1.98926 6.6087 2.10339 6.81186 2.30656L11.1506 6.64531C11.5737 7.06838 11.5737 7.75431 11.1506 8.17737L7.67768 11.6503C7.25461 12.0734 6.56868 12.0734 6.14561 11.6503L1.80686 7.31156C1.6037 7.10839 1.48956 6.83284 1.48956 6.54553Z" stroke="#A7A7A7" stroke-width="0.8125" stroke-linejoin="round"/>
<path d="M4.46873 4.56217C4.46873 4.78654 4.28685 4.96842 4.06248 4.96842C3.83811 4.96842 3.65623 4.78654 3.65623 4.56217C3.65623 4.33781 3.83811 4.15592 4.06248 4.15592C4.28685 4.15592 4.46873 4.33781 4.46873 4.56217Z" stroke="#A7A7A7" stroke-width="0.8125" stroke-linejoin="round"/>
</svg>