<svg xmlns="http://www.w3.org/2000/svg" width="20" height="20" viewBox="0 0 20 20" fill="none">
<path d="M7.24124 4.69527L5.80708 4.36431C5.53831 4.30229 5.25655 4.3831 5.06151 4.57814L4.57857 5.06108C4.38352 5.25612 4.30272 5.53788 4.36474 5.80665L4.6957 7.24081C4.77052 7.56505 4.63682 7.90175 4.35995 8.08634L2.95628 9.02212C2.73372 9.17049 2.60004 9.42027 2.60004 9.68776V10.3115C2.60004 10.5789 2.73372 10.8287 2.95628 10.9771L4.35995 11.9129C4.63682 12.0975 4.77052 12.4342 4.6957 12.7584L4.36474 14.1926C4.30272 14.4613 4.38352 14.7431 4.57857 14.9381L5.06151 15.4211C5.25655 15.6161 5.53831 15.6969 5.80708 15.6349L7.24124 15.3039C7.56548 15.2291 7.90218 15.3628 8.08676 15.6397L9.02254 17.0434C9.17092 17.2659 9.4207 17.3996 9.68818 17.3996H10.3119C10.5794 17.3996 10.8292 17.2659 10.9775 17.0434L11.9133 15.6397C12.0979 15.3628 12.4346 15.2291 12.7588 15.3039L14.193 15.6349C14.4618 15.6969 14.7435 15.6161 14.9386 15.4211L15.4215 14.9381C15.6165 14.7431 15.6974 14.4613 15.6353 14.1926L15.3044 12.7584C15.2295 12.4342 15.3633 12.0975 15.6401 11.9129L17.0438 10.9771C17.2664 10.8287 17.4 10.5789 17.4 10.3115V9.68776C17.4 9.42027 17.2664 9.17049 17.0438 9.02212L15.6401 8.08634C15.3633 7.90175 15.2295 7.56505 15.3044 7.24081L15.6353 5.80665C15.6974 5.53788 15.6165 5.25612 15.4215 5.06108L14.9386 4.57814C14.7435 4.3831 14.4618 4.30229 14.193 4.36431L12.7588 4.69527C12.4346 4.7701 12.0979 4.63639 11.9133 4.35952L10.9775 2.95585C10.8292 2.73329 10.5794 2.59961 10.3119 2.59961H9.68818C9.4207 2.59961 9.17092 2.73329 9.02254 2.95585L8.08676 4.35952C7.90218 4.63639 7.56548 4.7701 7.24124 4.69527Z" stroke="white" stroke-width="1.2" stroke-linejoin="round"/>
<path d="M12.2 9.99961C12.2 11.2146 11.2151 12.1996 10 12.1996C8.78501 12.1996 7.80004 11.2146 7.80004 9.99961C7.80004 8.78458 8.78501 7.79961 10 7.79961C11.2151 7.79961 12.2 8.78458 12.2 9.99961Z" stroke="white" stroke-width="1.2" stroke-linejoin="round"/>
</svg>